<svg width="103" height="17" viewBox="0 0 103 17" fill="none" xmlns="http://www.w3.org/2000/svg">
<path d="M7.56738 8.59668H3.05859C3.11133 9.68652 3.40137 10.5479 3.92871 11.1807C4.33301 11.667 4.81934 11.9102 5.3877 11.9102C5.73926 11.9102 6.05859 11.8135 6.3457 11.6201C6.63281 11.4209 6.94043 11.0664 7.26855 10.5566L7.56738 10.75C7.12207 11.6582 6.62988 12.3027 6.09082 12.6836C5.55176 13.0586 4.92773 13.2461 4.21875 13.2461C3 13.2461 2.07715 12.7773 1.4502 11.8398C0.946289 11.084 0.694336 10.1465 0.694336 9.02734C0.694336 7.65625 1.06348 6.56641 1.80176 5.75781C2.5459 4.94336 3.41602 4.53613 4.41211 4.53613C5.24414 4.53613 5.96484 4.87891 6.57422 5.56445C7.18945 6.24414 7.52051 7.25488 7.56738 8.59668ZM5.40527 8.00781C5.40527 7.06445 5.35254 6.41699 5.24707 6.06543C5.14746 5.71387 4.98926 5.44727 4.77246 5.26562C4.64941 5.16016 4.48535 5.10742 4.28027 5.10742C3.97559 5.10742 3.72656 5.25684 3.5332 5.55566C3.1875 6.07715 3.01465 6.79199 3.01465 7.7002V8.00781H5.40527ZM15.5654 8.59668H11.0566C11.1094 9.68652 11.3994 10.5479 11.9268 11.1807C12.3311 11.667 12.8174 11.9102 13.3857 11.9102C13.7373 11.9102 14.0566 11.8135 14.3438 11.6201C14.6309 11.4209 14.9385 11.0664 15.2666 10.5566L15.5654 10.75C15.1201 11.6582 14.6279 12.3027 14.0889 12.6836C13.5498 13.0586 12.9258 13.2461 12.2168 13.2461C10.998 13.2461 10.0752 12.7773 9.44824 11.8398C8.94434 11.084 8.69238 10.1465 8.69238 9.02734C8.69238 7.65625 9.06152 6.56641 9.7998 5.75781C10.5439 4.94336 11.4141 4.53613 12.4102 4.53613C13.2422 4.53613 13.9629 4.87891 14.5723 5.56445C15.1875 6.24414 15.5186 7.25488 15.5654 8.59668ZM13.4033 8.00781C13.4033 7.06445 13.3506 6.41699 13.2451 6.06543C13.1455 5.71387 12.9873 5.44727 12.7705 5.26562C12.6475 5.16016 12.4834 5.10742 12.2783 5.10742C11.9736 5.10742 11.7246 5.25684 11.5312 5.55566C11.1855 6.07715 11.0127 6.79199 11.0127 7.7002V8.00781H13.4033ZM20.0127 4.78223V5.86328C20.4639 5.37109 20.8799 5.02832 21.2607 4.83496C21.6475 4.63574 22.0693 4.53613 22.5264 4.53613C23.0537 4.53613 23.4961 4.65918 23.8535 4.90527C24.2109 5.15137 24.4863 5.52637 24.6797 6.03027C25.1484 5.50293 25.5967 5.12207 26.0244 4.8877C26.458 4.65332 26.9092 4.53613 27.3779 4.53613C27.9463 4.53613 28.3975 4.66797 28.7314 4.93164C29.0713 5.18945 29.3057 5.52051 29.4346 5.9248C29.5693 6.32324 29.6367 6.96191 29.6367 7.84082V11.207C29.6367 11.8398 29.6924 12.2324 29.8037 12.3848C29.9209 12.5371 30.1611 12.6367 30.5244 12.6836V13H26.2793V12.6836C26.6133 12.6543 26.8594 12.5254 27.0176 12.2969C27.123 12.1387 27.1758 11.7754 27.1758 11.207V7.67383C27.1758 6.94141 27.1465 6.47559 27.0879 6.27637C27.0293 6.07715 26.9355 5.93066 26.8066 5.83691C26.6836 5.7373 26.5371 5.6875 26.3672 5.6875C26.1152 5.6875 25.8604 5.78125 25.6025 5.96875C25.3447 6.15039 25.084 6.42578 24.8203 6.79492V11.207C24.8203 11.7988 24.8701 12.1709 24.9697 12.3232C25.1045 12.54 25.3623 12.6602 25.7432 12.6836V13H21.4893V12.6836C21.7178 12.6719 21.8965 12.6162 22.0254 12.5166C22.1602 12.4111 22.248 12.2881 22.2891 12.1475C22.3359 12.001 22.3594 11.6875 22.3594 11.207V7.67383C22.3594 6.92969 22.3301 6.46387 22.2715 6.27637C22.2129 6.08887 22.1133 5.94238 21.9727 5.83691C21.8379 5.73145 21.6914 5.67871 21.5332 5.67871C21.2988 5.67871 21.085 5.74023 20.8916 5.86328C20.6162 6.04492 20.3232 6.35547 20.0127 6.79492V11.207C20.0127 11.7871 20.0684 12.1709 20.1797 12.3584C20.2969 12.54 20.5371 12.6484 20.9004 12.6836V13H16.6641V12.6836C17.0098 12.6484 17.2559 12.5371 17.4023 12.3496C17.502 12.2207 17.5518 11.8398 17.5518 11.207V6.56641C17.5518 5.94531 17.4932 5.55859 17.376 5.40625C17.2646 5.25391 17.0273 5.1543 16.6641 5.10742V4.78223H20.0127ZM38.5576 8.59668H34.0488C34.1016 9.68652 34.3916 10.5479 34.9189 11.1807C35.3232 11.667 35.8096 11.9102 36.3779 11.9102C36.7295 11.9102 37.0488 11.8135 37.3359 11.6201C37.623 11.4209 37.9307 11.0664 38.2588 10.5566L38.5576 10.75C38.1123 11.6582 37.6201 12.3027 37.0811 12.6836C36.542 13.0586 35.918 13.2461 35.209 13.2461C33.9902 13.2461 33.0674 12.7773 32.4404 11.8398C31.9365 11.084 31.6846 10.1465 31.6846 9.02734C31.6846 7.65625 32.0537 6.56641 32.792 5.75781C33.5361 4.94336 34.4062 4.53613 35.4023 4.53613C36.2344 4.53613 36.9551 4.87891 37.5645 5.56445C38.1797 6.24414 38.5107 7.25488 38.5576 8.59668ZM36.3955 8.00781C36.3955 7.06445 36.3428 6.41699 36.2373 6.06543C36.1377 5.71387 35.9795 5.44727 35.7627 5.26562C35.6396 5.16016 35.4756 5.10742 35.2705 5.10742C34.9658 5.10742 34.7168 5.25684 34.5234 5.55566C34.1777 6.07715 34.0049 6.79199 34.0049 7.7002V8.00781H36.3955ZM42.8115 1.08203V11.2949C42.8115 11.875 42.8789 12.2471 43.0137 12.4111C43.1484 12.5693 43.4121 12.6602 43.8047 12.6836V13H39.3662V12.6836C39.7295 12.6719 39.999 12.5664 40.1748 12.3672C40.292 12.2324 40.3506 11.875 40.3506 11.2949V2.78711C40.3506 2.21289 40.2832 1.84668 40.1484 1.68848C40.0137 1.52441 39.7529 1.43066 39.3662 1.40723V1.08203H42.8115ZM46.582 0.800781C46.9629 0.800781 47.2852 0.935547 47.5488 1.20508C47.8125 1.46875 47.9443 1.78809 47.9443 2.16309C47.9443 2.53809 47.8096 2.85742 47.54 3.12109C47.2764 3.38477 46.957 3.5166 46.582 3.5166C46.207 3.5166 45.8877 3.38477 45.624 3.12109C45.3604 2.85742 45.2285 2.53809 45.2285 2.16309C45.2285 1.78809 45.3604 1.46875 45.624 1.20508C45.8877 0.935547 46.207 0.800781 46.582 0.800781ZM47.8125 4.78223V11.2949C47.8125 11.875 47.8799 12.2471 48.0146 12.4111C48.1494 12.5693 48.4131 12.6602 48.8057 12.6836V13H44.3672V12.6836C44.7305 12.6719 45 12.5664 45.1758 12.3672C45.293 12.2324 45.3516 11.875 45.3516 11.2949V6.49609C45.3516 5.91602 45.2842 5.54688 45.1494 5.38867C45.0146 5.22461 44.7539 5.13086 44.3672 5.10742V4.78223H47.8125ZM51.2578 10.293C51.668 10.293 52.0137 10.4365 52.2949 10.7236C52.582 11.0107 52.7256 11.3564 52.7256 11.7607C52.7256 12.165 52.582 12.5107 52.2949 12.7979C52.0078 13.0791 51.6621 13.2197 51.2578 13.2197C50.8535 13.2197 50.5078 13.0791 50.2207 12.7979C49.9395 12.5107 49.7988 12.165 49.7988 11.7607C49.7988 11.3564 49.9395 11.0107 50.2207 10.7236C50.5078 10.4365 50.8535 10.293 51.2578 10.293ZM62.1035 1.08203V10.5391C62.1035 11.1777 62.1211 11.5557 62.1562 11.6729C62.2031 11.8662 62.291 12.0098 62.4199 12.1035C62.5547 12.1973 62.7861 12.2559 63.1143 12.2793V12.5693L59.6426 13.2461V11.9453C59.2266 12.4492 58.8545 12.792 58.5264 12.9736C58.2041 13.1553 57.8379 13.2461 57.4277 13.2461C56.3789 13.2461 55.5498 12.7773 54.9404 11.8398C54.4482 11.0781 54.2021 10.1436 54.2021 9.03613C54.2021 8.15137 54.3545 7.36035 54.6592 6.66309C54.9639 5.95996 55.3799 5.42969 55.9072 5.07227C56.4404 4.71484 57.0117 4.53613 57.6211 4.53613C58.0137 4.53613 58.3623 4.6123 58.667 4.76465C58.9717 4.91699 59.2969 5.18359 59.6426 5.56445V3.08594C59.6426 2.45898 59.6162 2.08105 59.5635 1.95215C59.4932 1.78223 59.3877 1.65625 59.2471 1.57422C59.1064 1.49219 58.8428 1.45117 58.4561 1.45117V1.08203H62.1035ZM59.6426 6.6543C59.209 5.82227 58.6787 5.40625 58.0518 5.40625C57.835 5.40625 57.6562 5.46484 57.5156 5.58203C57.2988 5.76367 57.1201 6.08301 56.9795 6.54004C56.8447 6.99707 56.7773 7.69727 56.7773 8.64062C56.7773 9.67773 56.8535 10.4453 57.0059 10.9434C57.1582 11.4414 57.3662 11.8018 57.6299 12.0244C57.7646 12.1357 57.9492 12.1914 58.1836 12.1914C58.6992 12.1914 59.1855 11.7871 59.6426 10.9785V6.6543ZM71.0947 8.59668H66.5859C66.6387 9.68652 66.9287 10.5479 67.4561 11.1807C67.8604 11.667 68.3467 11.9102 68.915 11.9102C69.2666 11.9102 69.5859 11.8135 69.873 11.6201C70.1602 11.4209 70.4678 11.0664 70.7959 10.5566L71.0947 10.75C70.6494 11.6582 70.1572 12.3027 69.6182 12.6836C69.0791 13.0586 68.4551 13.2461 67.7461 13.2461C66.5273 13.2461 65.6045 12.7773 64.9775 11.8398C64.4736 11.084 64.2217 10.1465 64.2217 9.02734C64.2217 7.65625 64.5908 6.56641 65.3291 5.75781C66.0732 4.94336 66.9434 4.53613 67.9395 4.53613C68.7715 4.53613 69.4922 4.87891 70.1016 5.56445C70.7168 6.24414 71.0479 7.25488 71.0947 8.59668ZM68.9326 8.00781C68.9326 7.06445 68.8799 6.41699 68.7744 6.06543C68.6748 5.71387 68.5166 5.44727 68.2998 5.26562C68.1768 5.16016 68.0127 5.10742 67.8076 5.10742C67.5029 5.10742 67.2539 5.25684 67.0605 5.55566C66.7148 6.07715 66.542 6.79199 66.542 7.7002V8.00781H68.9326ZM77.3262 4.55371L77.458 7.35742H77.1592C76.8018 6.52539 76.4297 5.95703 76.043 5.65234C75.6621 5.34766 75.2812 5.19531 74.9004 5.19531C74.6602 5.19531 74.4551 5.27734 74.2852 5.44141C74.1152 5.59961 74.0303 5.78418 74.0303 5.99512C74.0303 6.15332 74.0889 6.30566 74.2061 6.45215C74.3936 6.69238 74.918 7.10547 75.7793 7.69141C76.6406 8.27148 77.2061 8.7666 77.4756 9.17676C77.751 9.58105 77.8887 10.0352 77.8887 10.5391C77.8887 10.9961 77.7744 11.4443 77.5459 11.8838C77.3174 12.3232 76.9951 12.6602 76.5791 12.8945C76.1631 13.1289 75.7031 13.2461 75.1992 13.2461C74.8066 13.2461 74.2822 13.123 73.626 12.877C73.4502 12.8125 73.3301 12.7803 73.2656 12.7803C73.0723 12.7803 72.9111 12.9268 72.7822 13.2197H72.4922L72.3516 10.2666H72.6504C72.9141 11.04 73.2744 11.6201 73.7314 12.0068C74.1943 12.3936 74.6309 12.5869 75.041 12.5869C75.3223 12.5869 75.5508 12.502 75.7266 12.332C75.9082 12.1562 75.999 11.9453 75.999 11.6992C75.999 11.418 75.9111 11.1748 75.7354 10.9697C75.5596 10.7646 75.167 10.4541 74.5576 10.0381C73.6611 9.41699 73.0811 8.94238 72.8174 8.61426C72.4307 8.13379 72.2373 7.60352 72.2373 7.02344C72.2373 6.39062 72.4541 5.81934 72.8877 5.30957C73.3271 4.79395 73.96 4.53613 74.7861 4.53613C75.2314 4.53613 75.6621 4.64453 76.0781 4.86133C76.2363 4.94922 76.3652 4.99316 76.4648 4.99316C76.5703 4.99316 76.6553 4.97266 76.7197 4.93164C76.7842 4.88477 76.8867 4.75879 77.0273 4.55371H77.3262ZM81.123 0.800781C81.5039 0.800781 81.8262 0.935547 82.0898 1.20508C82.3535 1.46875 82.4854 1.78809 82.4854 2.16309C82.4854 2.53809 82.3506 2.85742 82.0811 3.12109C81.8174 3.38477 81.498 3.5166 81.123 3.5166C80.748 3.5166 80.4287 3.38477 80.165 3.12109C79.9014 2.85742 79.7695 2.53809 79.7695 2.16309C79.7695 1.78809 79.9014 1.46875 80.165 1.20508C80.4287 0.935547 80.748 0.800781 81.123 0.800781ZM82.3535 4.78223V11.2949C82.3535 11.875 82.4209 12.2471 82.5557 12.4111C82.6904 12.5693 82.9541 12.6602 83.3467 12.6836V13H78.9082V12.6836C79.2715 12.6719 79.541 12.5664 79.7168 12.3672C79.834 12.2324 79.8926 11.875 79.8926 11.2949V6.49609C79.8926 5.91602 79.8252 5.54688 79.6904 5.38867C79.5557 5.22461 79.2949 5.13086 78.9082 5.10742V4.78223H82.3535ZM89.4287 4.87891H92.1973V5.8457H90.624C90.9111 6.13281 91.1104 6.39355 91.2217 6.62793C91.3623 6.94434 91.4326 7.27539 91.4326 7.62109C91.4326 8.20703 91.2686 8.7168 90.9404 9.15039C90.6182 9.57812 90.1758 9.91504 89.6133 10.1611C89.0566 10.4014 88.5615 10.5215 88.1279 10.5215C88.0928 10.5215 87.7412 10.5068 87.0732 10.4775C86.8096 10.4775 86.5869 10.5654 86.4053 10.7412C86.2295 10.9111 86.1416 11.1162 86.1416 11.3564C86.1416 11.5674 86.2207 11.7402 86.3789 11.875C86.543 12.0098 86.8066 12.0771 87.1699 12.0771L88.6904 12.0596C89.9209 12.0596 90.7676 12.1943 91.2305 12.4639C91.8926 12.8389 92.2236 13.416 92.2236 14.1953C92.2236 14.6934 92.0713 15.1445 91.7666 15.5488C91.4619 15.959 91.0605 16.2607 90.5625 16.4541C89.8066 16.7412 88.9365 16.8848 87.9521 16.8848C87.2139 16.8848 86.54 16.8115 85.9307 16.665C85.3213 16.5244 84.8848 16.3252 84.6211 16.0674C84.3574 15.8154 84.2256 15.5488 84.2256 15.2676C84.2256 14.998 84.3252 14.7549 84.5244 14.5381C84.7295 14.3271 85.1074 14.1484 85.6582 14.002C84.8965 13.627 84.5156 13.1055 84.5156 12.4375C84.5156 12.0332 84.6709 11.6406 84.9814 11.2598C85.292 10.8789 85.7842 10.5479 86.458 10.2666C85.6729 9.97949 85.1045 9.60156 84.7529 9.13281C84.4014 8.66406 84.2256 8.12207 84.2256 7.50684C84.2256 6.7041 84.5537 6.00977 85.21 5.42383C85.8662 4.83203 86.71 4.53613 87.7412 4.53613C88.2861 4.53613 88.8486 4.65039 89.4287 4.87891ZM87.9082 5.08105C87.5684 5.08105 87.2812 5.25391 87.0469 5.59961C86.8125 5.93945 86.6953 6.64844 86.6953 7.72656C86.6953 8.59961 86.8096 9.2002 87.0381 9.52832C87.2725 9.85059 87.5479 10.0117 87.8643 10.0117C88.2158 10.0117 88.5088 9.85059 88.7432 9.52832C88.9775 9.20605 89.0947 8.5791 89.0947 7.64746C89.0947 6.59863 88.9629 5.88379 88.6992 5.50293C88.5117 5.22168 88.248 5.08105 87.9082 5.08105ZM87.3896 14.2129C86.792 14.2129 86.3965 14.2627 86.2031 14.3623C85.8691 14.5439 85.7021 14.79 85.7021 15.1006C85.7021 15.3994 85.875 15.6689 86.2207 15.9092C86.5664 16.1553 87.2168 16.2783 88.1719 16.2783C88.9863 16.2783 89.625 16.1699 90.0879 15.9531C90.5566 15.7363 90.791 15.4316 90.791 15.0391C90.791 14.8926 90.7471 14.7695 90.6592 14.6699C90.501 14.4941 90.2607 14.374 89.9385 14.3096C89.6221 14.2451 88.7725 14.2129 87.3896 14.2129ZM96.5127 4.78223V5.8457C96.9346 5.38867 97.3389 5.05762 97.7256 4.85254C98.1123 4.6416 98.5283 4.53613 98.9736 4.53613C99.5068 4.53613 99.9492 4.68555 100.301 4.98438C100.652 5.27734 100.887 5.64355 101.004 6.08301C101.098 6.41699 101.145 7.05859 101.145 8.00781V11.207C101.145 11.8398 101.2 12.2354 101.312 12.3936C101.429 12.5459 101.669 12.6426 102.032 12.6836V13H97.875V12.6836C98.1855 12.6426 98.4082 12.5137 98.543 12.2969C98.6367 12.1504 98.6836 11.7871 98.6836 11.207V7.55078C98.6836 6.87695 98.6572 6.45215 98.6045 6.27637C98.5518 6.10059 98.4609 5.96582 98.332 5.87207C98.209 5.77246 98.0713 5.72266 97.9189 5.72266C97.415 5.72266 96.9463 6.08301 96.5127 6.80371V11.207C96.5127 11.8223 96.5684 12.2119 96.6797 12.376C96.7969 12.54 97.0107 12.6426 97.3213 12.6836V13H93.1641V12.6836C93.5098 12.6484 93.7559 12.5371 93.9023 12.3496C94.002 12.2207 94.0518 11.8398 94.0518 11.207V6.56641C94.0518 5.94531 93.9932 5.55859 93.876 5.40625C93.7646 5.25391 93.5273 5.1543 93.1641 5.10742V4.78223H96.5127Z" fill="white"/>
</svg>
